<?xml version="1.0" encoding="utf-8"?>
<svg xmlns="http://www.w3.org/2000/svg" viewBox="0 -10 79.2 60.79">
<style type="text/css">
	.cls-1{fill:#000;}
	.st0{fill:#00AF6C;}
	.st1{fill:#EE2D42;}
	.st2{fill:#EFB61D;}
	.st3{fill:#194B9A;}
</style>
<title>National TalentS Co.</title>
<g id="Layer_2" data-name="Layer 2">
<g id="Layer_1-2" data-name="Layer 1">
<!-- Talents  -->
<path class="cls-1 st0" d="M26.24,31.45a7.42,7.42,0,0,1-2.65,2.45,7.32,7.32,0,0,1-3.48.81,5,5,0,0,1-3.59-1.24,4.34,4.34,0,0,1-1.3-3.26A5.41,5.41,0,0,1,16,27.38a5,5,0,0,1,1.79-1.89A23.28,23.28,0,0,1,21.33,24q3.62-1.21,4.34-2a3,3,0,0,0,.73-2.09,5,5,0,0,0-.94-3.21,3.27,3.27,0,0,0-2.67-1.14,3.1,3.1,0,0,0-2.13.65,4.92,4.92,0,0,0-1.1,2.61c-.27,1.42.12,2.44-1.81,2.13a2.22,2.22,0,0,1-1.11-.51A1.81,1.81,0,0,1,16,19a3.62,3.62,0,0,1,1.89-3,9.21,9.21,0,0,1,5.2-1.28,9.79,9.79,0,0,1,4.19.75,3.73,3.73,0,0,1,2,1.71,11.32,11.32,0,0,1,.4,3.73l-.14,6.06a20.41,20.41,0,0,0,.43,5c.29,1,.83,1.49,1.61,1.49.15,0,.37,0,.65,0l.4,0c.35,0,.53.13.53.39,0,.59-1.54.89-4.62.89A2.13,2.13,0,0,1,26.74,34,5.05,5.05,0,0,1,26.24,31.45Zm0-9a10.11,10.11,0,0,1-3,2.19A12.53,12.53,0,0,0,19.79,27a4,4,0,0,0-1,2.76,3.74,3.74,0,0,0,.84,2.46,2.65,2.65,0,0,0,2.1,1,4.17,4.17,0,0,0,2.45-.82,4.91,4.91,0,0,0,1.7-2.08,9.72,9.72,0,0,0,.55-3.74C26.4,25.39,26.35,24,26.24,22.49Z"/>
<path class="cls-1 st0" d="M1.8,0,23.94,0c.07.43.17,1.31.29,2.65l.24,2.48c0,.41-.18.61-.54.61s-.52-.25-.77-.75a7.36,7.36,0,0,0-1.55-2.18,4.76,4.76,0,0,0-2.21-1.2,20,20,0,0,0-4.15-.3,58.9,58.9,0,0,0-.26,6q0,3.7.15,7.15a25.53,25.53,0,0,0,.35,4.15,1.81,1.81,0,0,0,.7,1,5.88,5.88,0,0,0,2.33.46c.41,0,.62.18.62.44S19,21,18.6,21l-.45,0-3.31-.09c-2.59,0-4.15,0-4.71,0l-2,.07-1,0c-.24-.06-.37-.18-.37-.39s.21-.44.61-.44a3.36,3.36,0,0,0,2.15-.59,2.74,2.74,0,0,0,.89-1.85,54.74,54.74,0,0,0,.17-5.5q0-6.69-.42-10.89a24.12,24.12,0,0,0-3.8.21A4.76,4.76,0,0,0,4.09,2.7,7.34,7.34,0,0,0,2.32,5.16c-.18.4-.39.6-.62.6s-.55-.16-.55-.47c0-.1.06-.79.2-2.08S1.8,0,1.8,0Z"/>
<path class="cls-1 st1" d="M50.7,15.81a1.3,1.3,0,0,1-1.34,1.49H37a11.45,11.45,0,0,0,.31,2.81,5.41,5.41,0,0,0,1,2.15,4.62,4.62,0,0,0,1.9,1.37,7.53,7.53,0,0,0,2.86.48,11.51,11.51,0,0,0,2.39-.22,13.56,13.56,0,0,0,1.8-.48,5.72,5.72,0,0,0,.61-.22c.32-.15,1.6.86,1.6,1.11s.35.05.33.18a2.94,2.94,0,0,1-.05.35,1,1,0,0,1-.1.28,1.33,1.33,0,0,1-.19.24,3.28,3.28,0,0,1-.68.37,10.69,10.69,0,0,1-1.45.51c-.6.16-1.29.31-2.07.44a15.38,15.38,0,0,1-2.51.2,11.53,11.53,0,0,1-4-.64,7.57,7.57,0,0,1-2.93-1.91,8.35,8.35,0,0,1-1.79-3.18,14.93,14.93,0,0,1-.6-4.45,14.19,14.19,0,0,1,.62-4.33,9.26,9.26,0,0,1,1.8-3.26,7.88,7.88,0,0,1,2.85-2,9.28,9.28,0,0,1,3.72-.72A8.92,8.92,0,0,1,46.22,7a7.11,7.11,0,0,1,2.55,1.9,7.64,7.64,0,0,1,1.46,2.8,12.07,12.07,0,0,1,.47,3.44Zm-3.43-1a6.19,6.19,0,0,0-1.21-4.23A4.62,4.62,0,0,0,42.29,9a5.09,5.09,0,0,0-2.24.47,4.85,4.85,0,0,0-1.62,1.27,5.69,5.69,0,0,0-1,1.83,7.31,7.31,0,0,0-.4,2.19Z"/>
<path class="cls-1 st2" d="M57.86,34.2a.31.31,0,0,1-.07.21.46.46,0,0,1-.23.15,2.2,2.2,0,0,1-.46.09q-.3,0-.72,0c-.29,0-.54,0-.73,0a2.07,2.07,0,0,1-.46-.09.55.55,0,0,1-.24-.15.38.38,0,0,1-.07-.21V28.11a5.45,5.45,0,0,0-.11-1.22,2.53,2.53,0,0,0-.33-.76,1.46,1.46,0,0,0-.55-.5,1.85,1.85,0,0,0-.8-.17,2,2,0,0,0-1.16.42,6.66,6.66,0,0,0-1.22,1.22v7.1a.31.31,0,0,1-.07.21.55.55,0,0,1-.24.15,2.2,2.2,0,0,1-.46.09c-.2,0-.44,0-.73,0a7.18,7.18,0,0,1-.73,0,2.07,2.07,0,0,1-.46-.09.53.53,0,0,1-.25-.15.31.31,0,0,1-.07-.21V23.53a.37.37,0,0,1,.06-.21.52.52,0,0,1,.21-.15,2.71,2.71,0,0,1,.41-.08,4.77,4.77,0,0,1,.61,0,5.31,5.31,0,0,1,.64,0,2.39,2.39,0,0,1,.39.08.51.51,0,0,1,.19.15.37.37,0,0,1,.06.21v1.24a6.78,6.78,0,0,1,1.8-1.44,4,4,0,0,1,1.9-.48,4.2,4.2,0,0,1,1.83.36,3.28,3.28,0,0,1,1.2,1,3.93,3.93,0,0,1,.66,1.45,8.16,8.16,0,0,1,.2,2Z"/>
<path class="cls-1 st1" d="M37,.22c.35.59-1.34,4.64-3.3,11.2L30.16,23.61a21.76,21.76,0,0,0-.59,2.69c0,.21.08.31.25.31A5.2,5.2,0,0,0,32,25.27a11.66,11.66,0,0,0,2.28-2.43c.31-.48.53-.72.68-.72s.33.11.33.34q0,.67-2.13,3c-1.42,1.54-2.8,2.3-4.13,2.3a1.5,1.5,0,0,1-1.07-.45A1.71,1.71,0,0,1,27.43,26a11.72,11.72,0,0,1,.4-2.95q.39-1.55,3.67-12.47A60.56,60.56,0,0,0,33.67,2.4c0-.7-.75-1.08-2.24-1.13-.56,0-.84-.15-.84-.41s.28-.43.83-.43C31.42.43,36.64-.37,37,.22Z"/>
<path class="cls-1 st3" d="M79.2,25.11a9.46,9.46,0,0,1-.84,4.07,8.7,8.7,0,0,1-2.34,3,10,10,0,0,1-3.52,1.87,14.65,14.65,0,0,1-4.37.63,15.16,15.16,0,0,1-3-.28,15.91,15.91,0,0,1-2.49-.68,12.48,12.48,0,0,1-1.84-.84,5.12,5.12,0,0,1-1-.74,1.93,1.93,0,0,1-.43-.77,4.68,4.68,0,0,1-.14-1.25,7.88,7.88,0,0,1,0-.93,3,3,0,0,1,.15-.59.68.68,0,0,1,.26-.31.68.68,0,0,1,.35-.09,2,2,0,0,1,1,.43,14.85,14.85,0,0,0,1.65.94,15.19,15.19,0,0,0,2.43,1,11,11,0,0,0,3.29.45,8.44,8.44,0,0,0,2.59-.38,6.18,6.18,0,0,0,2-1.07,4.71,4.71,0,0,0,1.3-1.69,5.54,5.54,0,0,0,.45-2.29,4.26,4.26,0,0,0-.63-2.36,6.33,6.33,0,0,0-1.67-1.72,14.32,14.32,0,0,0-2.36-1.36l-2.72-1.26c-.92-.43-1.82-.9-2.7-1.42a11.48,11.48,0,0,1-2.35-1.83,8.61,8.61,0,0,1-1.68-2.48A8.2,8.2,0,0,1,60,9.74,8.49,8.49,0,0,1,60.7,6.1a7.44,7.44,0,0,1,2.06-2.67,9.26,9.26,0,0,1,3.15-1.65,13.12,13.12,0,0,1,3.94-.57A13.35,13.35,0,0,1,72,1.4a14.24,14.24,0,0,1,2.07.49,10.62,10.62,0,0,1,1.72.69,4.15,4.15,0,0,1,1,.61,1.91,1.91,0,0,1,.31.37,1.73,1.73,0,0,1,.13.35,3.28,3.28,0,0,1,.07.52c0,.2,0,.46,0,.77s0,.57,0,.81a3.34,3.34,0,0,1-.11.58A.72.72,0,0,1,77,7a.49.49,0,0,1-.31.11,2.14,2.14,0,0,1-.87-.35q-.58-.34-1.44-.78a12.86,12.86,0,0,0-2-.79,8.88,8.88,0,0,0-2.62-.36,7,7,0,0,0-2.37.36,5.07,5.07,0,0,0-1.66,1,4.05,4.05,0,0,0-1,1.44,4.8,4.8,0,0,0-.32,1.78A4.27,4.27,0,0,0,65,11.68a6.21,6.21,0,0,0,1.67,1.73,13.9,13.9,0,0,0,2.38,1.38c.89.42,1.79.85,2.72,1.27s1.83.9,2.71,1.41a11.32,11.32,0,0,1,2.38,1.81,8.27,8.27,0,0,1,1.69,2.47A8.09,8.09,0,0,1,79.2,25.11Z"/>
<path class="cls-1 st2" d="M56.77,23.94a43.86,43.86,0,0,1,1.38-4.62A1.65,1.65,0,0,1,56.84,19c-.37-.4-.19-.65.3-.71a10.9,10.9,0,0,0,1.53-.3c.47-1.26.8-2,1.17-2.82.25-.52.51-.54.81-.18a1.93,1.93,0,0,1,.38.84,3.84,3.84,0,0,1-.1,1.53,1.56,1.56,0,0,1,1.29.49c.27.35.17.63-.36.65a6.39,6.39,0,0,0-1.39.29c-.59,1.52-1.45,3.84-1.93,5.58A4.11,4.11,0,0,0,58.42,26c.11.64.39,1.05.76,1,.83-.14,1.71-1.67,2.2-3.39.15-.55.63-.68.87-.12a1.69,1.69,0,0,1,0,1.29c-.19.69-1.32,2.76-3.11,3.06a2.24,2.24,0,0,1-2.51-2A4.56,4.56,0,0,1,56.77,23.94Z"/>
</g>
</g>
</svg>
